<svg width="412" height="374" viewBox="0 0 412 374" fill="none" xmlns="http://www.w3.org/2000/svg">
<path fill-rule="evenodd" clip-rule="evenodd" d="M144.05 335.79C177.323 325.438 209.844 304.511 267.024 312.912C324.205 321.314 363.699 252.818 342.562 219.214C333.174 208.362 326.509 194.059 342.562 171.18C357.568 128.03 328.702 100.938 302.086 88.1806C275.47 75.4232 210.638 48.9186 156.318 67.4958C101.998 86.073 79.9669 115.254 76.3637 135.508C72.7604 155.762 87.1574 157.743 89.7332 189.78C92.309 221.816 56.8358 274.624 71.2601 303.68C85.6844 332.735 110.778 346.141 144.05 335.79Z" fill="#00FFC4"/>
<path fill-rule="evenodd" clip-rule="evenodd" d="M294.046 307.365C292.864 305.77 290.909 304.824 289.111 303.807C284.503 301.201 280.524 297.788 276.598 294.383C268.418 287.291 260.311 280.128 252.279 272.897C250.256 271.076 248.227 269.238 246.597 267.117C242.864 262.26 238.106 258.055 232.657 254.798C231.88 254.334 231.042 253.875 230.112 253.84C229.007 253.798 227.995 254.362 227.076 254.922C219.932 259.271 213.562 264.665 208.286 270.832C207.635 271.594 206.966 272.473 207.087 273.431C207.177 274.139 207.686 274.737 208.178 275.293C214.367 282.272 221.032 288.903 228.121 295.137C230.045 296.829 232.006 298.497 233.712 300.373C236.068 302.964 237.9 305.908 240.016 308.664C249.788 321.391 265.403 329.681 281.779 334.115C283.8 334.662 285.91 335.161 287.996 334.879C292.643 334.252 295.811 329.138 293.99 325.208C292.685 322.394 293.661 319.192 294.492 316.233C295.323 313.275 295.924 309.898 294.046 307.365Z" fill="white"/>
<path fill-rule="evenodd" clip-rule="evenodd" d="M297.134 231.729C298.83 228.316 302.824 225.952 306.948 225.92C308.96 225.904 310.93 226.393 312.869 226.878C321.397 229.011 329.925 231.144 338.454 233.278C340.673 233.833 342.936 234.406 344.848 235.57C346.76 236.735 348.293 238.616 348.323 240.705C348.343 242.076 347.729 243.385 347.043 244.606C346.108 246.271 344.964 247.917 343.249 248.951C339.78 251.044 335.169 250.071 331.166 249.024C321.859 246.591 312.538 244.153 303.492 241.012C300.559 239.993 297.29 238.534 296.541 235.765C296.178 234.422 296.507 232.99 297.134 231.729Z" fill="white"/>
<path fill-rule="evenodd" clip-rule="evenodd" d="M180.879 300.552C184.69 298.707 190.052 300.42 191.751 304.024C192.864 306.386 192.493 309.079 192.103 311.622C191.065 318.393 190.027 325.163 188.989 331.934C188.776 333.323 188.562 334.719 188.104 336.059C187.229 338.625 185.377 340.987 182.746 342.216C180.115 343.445 176.687 343.372 174.364 341.709C172.624 340.462 171.657 338.492 171.311 336.504C170.966 334.516 171.179 332.487 171.42 330.487C172.211 323.943 173.3 317.429 174.685 310.966C175.544 306.956 176.907 302.474 180.879 300.552Z" fill="white"/>
<path fill-rule="evenodd" clip-rule="evenodd" d="M89.6816 165.798C89.2564 165.289 89.9832 164.649 90.6079 164.355C97.7679 160.989 105.008 157.763 112.323 154.682C114.234 153.877 116.182 153.073 118.265 152.783C120.348 152.494 122.619 152.78 124.267 153.972C126.22 155.386 126.956 157.79 127.078 160.054C127.178 161.925 126.872 163.944 125.491 165.335C124.856 165.974 124.038 166.435 123.228 166.883C115.762 171.011 108.023 174.731 100.067 178.018C97.6596 179.013 94.8833 179.975 92.4546 179.025C91.5432 178.668 90.7705 178.065 90.1223 177.383C87.1177 174.221 86.9244 169.141 89.6816 165.798Z" fill="white"/>
<path fill-rule="evenodd" clip-rule="evenodd" d="M161.124 100.476C160.677 103.702 162.318 107.097 165.236 108.982C166.614 109.872 167.121 111.573 166.902 113.095C166.684 114.617 165.862 116.006 165.022 117.338C164.393 118.337 163.716 119.357 162.684 120.026C161.652 120.695 160.167 120.923 159.127 120.265C155.135 117.741 149.727 118.727 145.013 119.815C143.45 120.175 141.929 119.201 140.672 118.285C139.076 117.122 137.48 115.959 135.884 114.796C135.311 114.378 134.722 113.943 134.386 113.35C133.969 112.614 134 111.74 134.103 110.918C134.62 106.803 136.667 102.984 138.896 99.3706C141.2 95.638 144.422 91.6234 149.122 91.3069C150.348 91.2243 151.704 91.4723 152.481 92.3374C153.859 93.8735 155.988 94.644 157.826 95.7121C159.664 96.7803 161.397 98.5101 161.124 100.476Z" fill="white"/>
<path fill-rule="evenodd" clip-rule="evenodd" d="M133.43 109.475C132.045 110.588 130.038 110.884 128.21 110.626C126.383 110.369 124.687 109.623 123.043 108.855C114.397 104.817 106.248 99.9035 98.7964 94.2337C98.2246 93.7986 97.6463 93.3477 97.2662 92.7649C96.8197 92.0801 96.6828 91.2685 96.5966 90.4766C95.677 82.0285 99.9119 73.2667 107.383 68.1605C110.429 66.0783 114.781 64.6156 117.936 66.5602C125.136 70.9983 132.19 75.6322 139.084 80.4536C142.098 82.5612 145.147 84.7713 147.114 87.7275C147.79 88.7436 148.277 90.1708 147.361 91.0182C146.223 87.8162 128.795 109.756 133.43 109.475Z" fill="white"/>
<path fill-rule="evenodd" clip-rule="evenodd" d="M81.839 317.562C78.0385 318.81 72.9131 317.376 71.8832 313.828C70.1613 307.896 79.6518 304.864 83.1972 299.642C87.4053 293.444 82.3611 285.615 77.4045 279.891C73.8873 282.559 68.7645 285.303 65.1421 282.752C60.7557 279.664 64.4468 273.208 68.92 270.225C76.9429 264.873 87.2029 262.36 97.1025 263.321C99.6226 246.281 109.265 230.19 123.654 219.011C138.043 207.833 157.047 201.67 175.981 202.041C173.865 168.714 195.15 135.105 227.941 119.995C231.501 118.355 235.312 116.891 239.304 116.913C243.296 116.935 247.511 118.779 249.025 122.132C250.54 125.485 248.191 130.086 244.214 130.392C242.361 130.535 226.287 135.729 227.941 135.401C249.025 131.216 299.492 164.602 326.662 164.602C329.101 164.602 335.433 156.437 337.149 155.345C338.725 154.343 343.064 153.775 344.96 154.071C349.904 154.843 349.557 161.47 347.43 165.594C334.747 190.194 306.33 205.674 277.118 211.554C247.907 217.433 217.544 215.109 187.736 212.756C185.673 232.108 182.76 253.154 167.507 266.803C153.006 279.78 130.07 282.634 110.438 277.724C110.438 275.049 110.438 275.049 110.606 267.725C107.201 282.928 100.355 297.488 90.6179 310.236C88.315 313.252 85.6395 316.314 81.839 317.562Z" fill="white"/>
<path d="M287.637 81.8122C286.431 83.2374 285.226 84.6625 284.02 86.0876C283.369 86.857 282.095 87.6652 281.402 86.9267C280.189 85.6337 277.947 85.998 276.115 85.654C274.928 85.4312 273.855 84.8759 272.804 84.3286C257.609 76.4163 242.415 68.504 227.22 60.5917C226.019 59.9665 224.719 59.2314 224.321 58.028C227.79 52.5165 233.646 44.924 233.981 45.1075C237.625 47.4914 241.335 49.7924 245.107 52.0076C257.071 59.0351 269.629 65.1866 281.846 71.8475C283.035 72.4957 284.338 73.3001 284.559 74.5428C284.73 75.4996 283.956 77.8694 284.686 77.4106C285.079 77.1636 285.611 77.3856 286.021 77.6082C287.262 78.2813 288.685 79.306 288.384 80.5892C288.277 81.0493 287.952 81.4392 287.637 81.8122Z" fill="white"/>
<path fill-rule="evenodd" clip-rule="evenodd" d="M224.52 136.763C225.382 136.635 226.161 136.112 226.548 135.401C232.958 135.976 239.313 137.063 245.513 138.646C259.547 142.23 272.644 148.302 285.385 154.734C298.434 161.321 313.095 165.26 327.992 166.181C328.105 166.92 327.418 167.604 326.636 167.833C325.854 168.063 325.006 167.951 324.193 167.838C311.843 166.112 299.108 164.261 288.508 158.253C277.692 152.122 266.204 146.97 254.268 142.898C251.189 141.848 248.078 140.868 244.92 140.036C238.276 138.284 231.423 137.185 224.52 136.763Z" fill="#00160A"/>
<path fill-rule="evenodd" clip-rule="evenodd" d="M297.134 231.729C298.83 228.316 302.824 225.952 306.948 225.92C308.96 225.904 310.93 226.393 312.869 226.878C321.397 229.011 329.925 231.144 338.454 233.278C340.673 233.833 342.936 234.406 344.848 235.57C346.76 236.735 348.293 238.616 348.323 240.705C348.343 242.076 347.729 243.385 347.043 244.606C346.108 246.271 344.964 247.917 343.249 248.951C339.78 251.044 335.169 250.071 331.166 249.024C321.859 246.591 312.538 244.153 303.492 241.012C300.559 239.993 297.29 238.534 296.541 235.765C296.178 234.422 296.507 232.99 297.134 231.729ZM318.999 241.175C318.746 242.76 319.107 244.865 320.836 245.18C325.04 245.946 329.204 246.893 333.309 248.017C335.929 248.734 338.796 249.517 341.322 248.562C343.218 247.845 344.538 246.273 345.659 244.711C346.936 242.931 348.095 240.633 346.958 238.777C346.197 237.536 344.636 236.92 343.176 236.412C337.573 234.463 331.827 232.853 325.989 231.596C324.252 231.222 322.709 232.661 321.791 234.052C320.355 236.228 319.4 238.664 318.999 241.175Z" fill="#00160A"/>
<path fill-rule="evenodd" clip-rule="evenodd" d="M140.555 83.3195C140.123 83.0896 139.656 82.8736 139.155 82.87C138.616 82.866 138.115 83.1083 137.648 83.3535C128.667 88.0683 122.181 96.5212 120.423 105.803C124.064 108.42 128.795 109.756 133.43 109.475C132.045 110.588 130.038 110.884 128.21 110.626C126.383 110.369 124.687 109.623 123.043 108.855C114.397 104.817 106.248 99.9035 98.7964 94.2337C98.2246 93.7986 97.6463 93.3477 97.2662 92.7649C96.8197 92.0801 96.6828 91.2685 96.5966 90.4766C95.677 82.0285 99.9119 73.2667 107.383 68.1605C110.429 66.0783 114.781 64.6156 117.936 66.5602C125.136 70.9983 132.19 75.6322 139.084 80.4536C142.098 82.5612 145.147 84.7713 147.114 87.7275C147.79 88.7436 148.277 90.1708 147.361 91.0182C146.223 87.8162 143.752 85.0209 140.555 83.3195ZM102.347 74.5601C101.322 75.7897 100.308 77.0483 99.6505 78.4696C98.8992 80.0925 98.6413 81.8627 98.3906 83.6083C97.9384 86.7568 97.5929 90.2871 99.7496 92.7868C100.521 93.6814 101.553 94.3562 102.57 95.0185C107.115 97.9779 111.66 100.937 116.205 103.897C116.749 104.25 117.321 104.615 117.984 104.695C118.647 104.776 119.419 104.465 119.574 103.875C121.94 94.8844 128.509 86.8719 137.315 82.232C137.878 81.9355 137.404 81.1594 136.908 80.7776C132.476 77.3706 127.769 74.2593 122.837 71.4771C122.562 71.3218 122.271 71.1631 121.948 71.1447C121.53 71.1209 121.146 71.3331 120.795 71.5393C116.458 74.0885 112.292 76.9842 109.09 80.6652C105.888 84.3461 103.697 88.8924 103.725 93.5826C103.493 93.9603 102.916 93.4489 102.839 93.022C102.213 89.5471 103.833 86.057 105.873 83.0622C109.417 77.8584 114.359 73.4457 120.15 70.3152C118.422 67.3652 113.84 66.6525 110.436 67.9218C107.031 69.1912 104.567 71.8954 102.347 74.5601Z" fill="#00160A"/>
<path fill-rule="evenodd" clip-rule="evenodd" d="M191.751 304.024C192.864 306.386 192.493 309.079 192.103 311.622L188.989 331.934C188.776 333.323 188.562 334.719 188.104 336.059C187.229 338.625 185.377 340.987 182.746 342.216C180.115 343.445 176.687 343.372 174.364 341.709C172.624 340.462 171.657 338.492 171.311 336.504C170.966 334.517 171.179 332.487 171.42 330.487C172.211 323.943 173.3 317.429 174.685 310.966L174.774 310.557C175.639 306.655 177.042 302.409 180.879 300.552C184.69 298.707 190.052 300.42 191.751 304.024ZM175.284 321.746L175.285 321.736C175.023 321.859 174.754 321.991 174.478 322.133C174.165 323.927 173.887 325.725 173.66 327.53C173.35 329.987 173.136 332.454 173.059 334.926L173.05 335.258C173.037 336.093 173.092 336.947 173.537 337.669C174.212 338.765 175.618 339.296 176.957 339.607C179.095 340.102 181.507 340.194 183.365 339.115C185.609 337.81 186.41 335.22 186.916 332.845C187.382 330.654 187.749 328.446 188.014 326.228L188.047 325.932C188.118 325.236 188.13 324.52 187.79 323.902C187.477 323.333 186.902 322.923 186.312 322.58C186.123 322.47 185.931 322.366 185.735 322.266C184.224 321.78 184.224 321.03 181.173 320.968C179.173 320.927 177.131 321.03 175.284 321.746Z" fill="#00160A"/>
<path fill-rule="evenodd" clip-rule="evenodd" d="M89.6816 165.798C89.2564 165.289 89.9832 164.649 90.6079 164.355C97.7679 160.989 105.008 157.763 112.323 154.682C114.234 153.877 116.182 153.073 118.265 152.783C120.348 152.494 122.619 152.78 124.267 153.972C126.22 155.386 126.956 157.79 127.078 160.054C127.178 161.925 126.872 163.944 125.491 165.335C124.856 165.974 124.038 166.435 123.228 166.883C115.762 171.011 108.023 174.731 100.067 178.018C97.6596 179.013 94.8833 179.975 92.4546 179.025C91.5432 178.668 90.7705 178.065 90.1223 177.383C87.1177 174.221 86.9244 169.141 89.6816 165.798ZM124.915 156.827C124.379 155.486 122.978 154.524 121.454 154.171C119.931 153.819 118.306 154.012 116.813 154.458C115.691 154.793 114.625 155.265 113.564 155.736C111.727 156.551 109.89 157.366 108.053 158.181C107.492 158.43 106.906 158.697 106.545 159.161C106.29 159.49 106.172 159.888 106.058 160.277C105.618 161.783 105.175 163.348 105.478 164.882C105.926 167.15 107.89 168.882 109.75 170.449C110.103 170.746 110.48 171.055 110.95 171.149C111.574 171.274 112.201 170.992 112.765 170.719C115.391 169.449 118.016 168.179 120.642 166.908C122.666 165.93 124.846 164.794 125.662 162.849C126.472 160.918 125.692 158.769 124.915 156.827Z" fill="#00160A"/>
<path fill-rule="evenodd" clip-rule="evenodd" d="M212.866 35.39C213.137 35.0236 213.696 34.9095 214.171 35.002C214.647 35.0945 215.06 35.3523 215.459 35.6044C218.273 37.3824 221.087 39.1605 223.901 40.9386C224.372 41.2361 224.882 41.5878 224.977 42.1014C224.772 42.5187 224.079 42.321 223.662 42.0637C220.064 39.8391 216.465 37.6146 212.866 35.39Z" fill="#00160A"/>
<path fill-rule="evenodd" clip-rule="evenodd" d="M247.854 62.6489C247.424 62.5963 247.536 62.0005 247.766 61.6666C248.628 60.4176 249.49 59.1686 250.351 57.9196C250.653 57.9706 250.613 58.3757 250.489 58.6306C249.792 60.0591 248.905 61.4113 247.854 62.6489Z" fill="#00160A"/>
<path fill-rule="evenodd" clip-rule="evenodd" d="M207.765 269.836C212.975 264.365 218.827 259.397 225.19 255.045C226.661 254.039 228.265 253.029 230.103 252.914C233.02 252.731 235.448 254.802 237.468 256.721C242.784 261.77 248.101 266.82 253.417 271.869C259.687 277.824 265.96 283.782 272.543 289.452C279.594 295.526 287.025 301.283 295.218 306.032C297.728 307.487 297.921 310.79 297.109 313.39C296.297 315.991 294.762 318.475 294.788 321.178C294.8 322.322 295.094 323.446 295.287 324.576C295.848 327.858 295.483 331.417 293.398 334.146C291.313 336.874 287.223 338.476 283.824 337.249C270.607 332.477 257.03 327.498 246.781 318.545C244.234 316.321 241.931 313.881 239.632 311.445C228.831 299.998 218.029 288.551 207.228 277.105C206.521 276.355 205.789 275.563 205.56 274.598C205.145 272.849 206.476 271.189 207.765 269.836M294.046 307.365C292.864 305.77 290.909 304.824 289.111 303.807C284.502 301.201 280.524 297.788 276.598 294.383C268.418 287.291 260.311 280.128 252.279 272.897C250.256 271.076 248.227 269.238 246.597 267.117C242.864 262.26 238.106 258.055 232.657 254.798C231.88 254.334 231.042 253.875 230.112 253.84C229.007 253.798 227.995 254.362 227.076 254.922C219.932 259.271 213.562 264.665 208.286 270.833C207.635 271.594 206.966 272.473 207.087 273.431C207.177 274.139 207.686 274.737 208.178 275.293C214.367 282.272 221.032 288.903 228.121 295.137C230.045 296.829 232.006 298.497 233.712 300.373C236.068 302.964 237.9 305.908 240.016 308.664C249.788 321.391 265.403 329.681 281.778 334.115C283.8 334.662 285.91 335.161 287.996 334.879C292.643 334.252 295.811 329.138 293.99 325.208C292.685 322.394 293.661 319.192 294.492 316.233C295.323 313.275 295.924 309.898 294.046 307.365Z" fill="#00160A"/>
<path fill-rule="evenodd" clip-rule="evenodd" d="M241.025 53.4556C240.42 54.4772 239.815 55.4989 239.21 56.5205C238.973 55.044 240.052 53.687 241.071 52.5165C241.36 52.7348 241.203 53.1553 241.025 53.4556L241.025 53.4556Z" fill="#00160A"/>
<path fill-rule="evenodd" clip-rule="evenodd" d="M244.351 56.8731C244.478 57.9425 243.966 59.0564 243.04 59.7277C242.934 58.6595 243.441 57.5566 244.351 56.8731L244.351 56.8731Z" fill="#00160A"/>
<path fill-rule="evenodd" clip-rule="evenodd" d="M259.964 63.346C259.769 64.4604 259.148 65.5096 258.233 66.2729C257.855 66.588 257.422 66.8583 256.934 67.0038C256.745 66.7832 256.954 66.4709 257.157 66.2602C258.093 65.2888 259.028 64.3174 259.964 63.346Z" fill="#00160A"/>
<path fill-rule="evenodd" clip-rule="evenodd" d="M253.037 63.7156C253.197 63.2316 253.477 62.7808 253.851 62.4067C254.227 62.3558 254.187 62.9222 253.976 63.2089C253.637 63.6698 253.297 64.1307 252.958 64.5916C252.596 64.4271 252.598 63.8639 252.961 63.7017L253.037 63.7156Z" fill="#00160A"/>
<path fill-rule="evenodd" clip-rule="evenodd" d="M269.991 69.394C269.742 69.9562 269.179 70.3952 268.529 70.534C269.027 69.8105 269.526 69.087 270.024 68.3634C270.254 68.6671 270.24 69.1051 269.991 69.3964L269.991 69.394Z" fill="#00160A"/>
<path fill-rule="evenodd" clip-rule="evenodd" d="M277.185 74.0954C277.269 73.8158 277.624 73.63 277.933 73.7041C277.719 74.2615 277.414 74.7899 277.03 75.2665C276.657 74.9691 276.727 74.339 277.158 74.1151L277.185 74.0954Z" fill="#00160A"/>
<path fill-rule="evenodd" clip-rule="evenodd" d="M161.124 100.476C160.677 103.702 162.318 107.097 165.236 108.982C166.614 109.872 167.121 111.573 166.902 113.095C166.684 114.617 165.862 116.006 165.022 117.338C164.393 118.337 163.716 119.357 162.684 120.026C161.652 120.695 160.167 120.923 159.127 120.265C155.135 117.741 149.727 118.727 145.013 119.815C143.45 120.175 141.929 119.201 140.672 118.285C139.076 117.122 137.48 115.959 135.884 114.796C135.311 114.378 134.722 113.943 134.386 113.35C133.969 112.614 134 111.74 134.103 110.918C134.62 106.803 136.667 102.984 138.896 99.3706C141.2 95.638 144.422 91.6234 149.122 91.3069C150.348 91.2243 151.704 91.4723 152.481 92.3374C153.859 93.8735 155.988 94.644 157.826 95.7121C159.664 96.7803 161.397 98.5101 161.124 100.476ZM141.942 100.178C141.564 99.9957 141.127 99.8088 140.725 99.942C140.463 100.029 140.275 100.237 140.104 100.438C138.03 102.88 136.499 105.7 135.627 108.68C135.355 109.609 135.152 110.618 135.539 111.512C135.844 112.219 136.479 112.76 137.094 113.275C138.482 114.437 139.87 115.599 141.258 116.761C142.213 117.561 143.396 118.422 144.664 118.163C149.268 117.224 154.303 116.325 158.531 118.227C160.28 119.015 162.492 118.182 163.715 116.8C164.938 115.418 165.407 113.625 165.843 111.897C162.422 109.535 159.824 106.204 158.509 102.49C158.325 101.971 157.458 102.295 157.045 102.691C154.746 104.899 152.446 107.107 150.147 109.315C148.622 110.779 146.979 112.593 147.435 114.565C147.56 115.104 146.551 115.335 146.163 114.912C145.775 114.489 145.885 113.859 146.061 113.332C147.702 108.424 152.846 105.32 156.576 101.468C157.304 100.716 158.023 99.8179 157.93 98.8206C157.831 97.7727 156.877 96.9831 155.988 96.3086C154.272 95.0068 152.47 93.6764 150.301 93.1827C148.132 92.689 145.489 93.2916 144.444 95.0857C147.765 96.4768 150.979 98.0777 154.056 99.8732C154.492 100.128 154.944 100.718 154.511 100.978C151.893 99.6521 149.275 98.3262 146.657 97.0003C145.842 96.5876 144.998 96.1662 144.07 96.0792C143.142 95.9921 142.099 96.3275 141.688 97.0881C141.159 98.0668 141.902 99.2698 142.911 99.86C143.921 100.45 145.144 100.64 146.256 101.051C147.884 101.654 149.28 102.758 150.161 104.139C147.421 102.819 144.682 101.498 141.942 100.178Z" fill="#00160A"/>
<path fill-rule="evenodd" clip-rule="evenodd" d="M272.255 73.9916C272.15 74.3267 271.841 74.6027 271.47 74.6926C271.601 73.7326 272.222 72.8369 273.12 72.316C273.141 72.941 272.779 73.5653 272.2 73.9034L272.255 73.9916Z" fill="#00160A"/>
<path fill-rule="evenodd" clip-rule="evenodd" d="M263.566 69.008C263.402 69.3422 263.029 69.5837 262.627 69.6149C262.717 68.9936 262.996 68.3956 263.424 67.9044C263.592 67.7121 263.806 67.5251 264.074 67.498C264.343 67.4709 264.644 67.6916 264.573 67.9283C264.224 68.2718 263.875 68.6153 263.526 68.9589L263.566 69.008Z" fill="#00160A"/>
<path fill-rule="evenodd" clip-rule="evenodd" d="M207.672 149.062C207.743 149.239 207.405 149.391 207.293 149.233C207.227 149.067 207.276 148.869 207.413 148.745C207.514 148.836 207.615 148.928 207.715 149.02L207.672 149.062Z" fill="#00160A"/>
<path fill-rule="evenodd" clip-rule="evenodd" d="M288.112 86.2952C288.629 85.9953 289.159 85.6837 289.509 85.227C289.859 84.7703 289.988 84.1269 289.656 83.6592C289.023 83.5847 288.436 83.2383 288.104 82.7436C288.089 82.4471 288.422 82.1791 288.744 82.227C289.367 82.4743 290.016 82.7392 290.439 83.223C290.861 83.7067 290.965 84.4798 290.48 84.9122C295.202 87.8592 299.923 90.8061 304.645 93.753C304.361 93.9422 303.963 93.8222 303.642 93.6899C299.425 91.9512 295.875 89.1451 292.02 86.8155C291.125 86.2748 289.787 85.8076 289.108 86.5637C288.199 87.5758 286.082 87.23 285.618 85.9935C285.531 85.5316 286.389 85.5055 286.783 85.8077C287.178 86.1099 287.678 86.5477 288.112 86.2952Z" fill="#00160A"/>
<path fill-rule="evenodd" clip-rule="evenodd" d="M279.924 307.291C280.769 306.292 281.637 305.31 282.528 304.345C282.79 304.061 283.06 303.774 283.402 303.571C284.705 302.797 286.433 303.497 287.735 304.273C289.172 305.128 290.541 306.076 291.83 307.107C292.898 307.962 293.959 308.951 294.251 310.216C294.542 311.48 293.704 313.032 292.286 313.143C291.417 314.574 290.177 315.818 288.694 316.746C287.853 317.272 286.702 316.948 285.788 316.533C283.171 315.343 280.91 313.512 279.31 311.286C279.055 310.931 278.812 310.557 278.72 310.141C278.491 309.111 279.219 308.124 279.924 307.291ZM288.509 316.157C289.288 315.15 290.067 314.143 290.847 313.136C290.097 312.33 288.728 312.328 287.747 311.764C287.21 311.456 286.809 310.99 286.421 310.533C285.281 309.197 284.142 307.86 283.003 306.523C282.053 307.425 281.171 308.385 280.365 309.396C280.247 309.543 280.127 309.701 280.107 309.882C280.083 310.089 280.192 310.287 280.304 310.469C282.028 313.275 285.073 315.386 288.509 316.157ZM287.058 304.948C286.329 304.493 285.201 304.089 284.689 304.743C284.377 305.141 284.539 305.691 284.745 306.141C285.888 308.635 288.114 310.705 290.833 311.803C291.614 312.119 292.8 312.207 293.066 311.469C293.164 311.196 293.081 310.898 292.978 310.627C292.022 308.119 289.468 306.45 287.058 304.948Z" fill="#00160A"/>
<path fill-rule="evenodd" clip-rule="evenodd" d="M219.969 272.034C219.508 272.64 219.047 273.246 218.587 273.852C218.15 274.427 217.698 275.038 217.642 275.734C217.591 276.356 217.864 276.96 218.168 277.519C219.502 279.979 221.538 282.122 224.022 283.681C223.338 284.448 221.969 283.999 221.102 283.404C218.808 281.833 217.079 279.594 216.235 277.101C216.029 276.492 215.873 275.853 215.949 275.22C216.109 273.9 217.217 272.862 218.264 271.935C219.533 270.811 221.001 269.611 222.774 269.635C223.939 269.65 225.012 270.207 225.941 270.846C228.62 272.689 230.662 275.69 230.068 278.693C229.922 279.431 229.311 280.304 228.517 280.098C225.628 279.35 223.063 277.617 221.446 275.319C221.105 274.835 220.779 274.304 220.226 274.026C220.209 273.357 220.123 272.689 219.969 272.034ZM222.688 271.661C221.935 272.092 221.845 273.083 222.131 273.848C222.897 275.902 225.432 276.88 226.994 278.521C227.196 278.734 227.403 278.971 227.701 279.048C228.152 279.165 228.628 278.838 228.791 278.438C228.954 278.038 228.884 277.594 228.796 277.175C228.543 275.969 228.153 274.767 227.425 273.732C226.697 272.697 225.597 271.837 224.286 271.537C223.753 271.415 223.153 271.396 222.688 271.661Z" fill="#00160A"/>
<path fill-rule="evenodd" clip-rule="evenodd" d="M273.581 291.595C274.114 291.83 274.395 292.358 274.638 292.848C275.004 293.586 275.37 294.324 275.735 295.062C275.888 295.371 276.044 295.689 276.057 296.027C276.078 296.533 275.791 297.094 276.105 297.513C274.635 298.569 273.255 299.728 271.982 300.977C271.635 301.317 271.278 301.675 270.802 301.844C269.912 302.161 268.923 301.721 268.141 301.222C266.301 300.046 264.783 298.457 263.762 296.637C263.242 295.71 262.924 294.42 263.807 293.755C264.091 293.541 264.183 293.188 264.288 292.866C264.777 291.365 265.917 290.047 267.407 289.26C267.623 289.146 267.855 289.04 268.105 289.032C268.322 289.024 268.533 289.091 268.738 289.157C269.827 289.507 270.917 289.858 272.006 290.208C272.463 290.355 273.013 290.633 272.947 291.068C272.904 291.347 273.303 291.472 273.581 291.595M265.376 292.447C264.866 293.434 264.354 294.525 264.655 295.581C264.772 295.992 265.006 296.367 265.264 296.721C266.203 298.014 267.487 299.1 268.973 299.86C269.931 300.349 271.214 300.676 272.061 300.04C272.712 299.551 272.922 298.603 273.719 298.349C274.143 298.215 274.169 297.632 273.878 297.322C273.588 297.012 273.126 296.896 272.702 296.762C270.34 296.015 268.436 294.172 267.765 291.984C267.705 291.789 267.65 291.584 267.508 291.428C267.2 291.091 266.586 291.124 266.194 291.38C265.803 291.637 265.581 292.05 265.376 292.447M274.627 296.003C275.246 294.942 274.273 293.716 273.364 292.843C272.81 292.311 272.255 291.778 271.7 291.245C271.28 290.842 270.828 290.421 270.238 290.275C269.647 290.129 268.891 290.39 268.775 290.936C268.725 291.171 268.799 291.412 268.886 291.638C269.749 293.884 272.039 295.625 274.627 296.003H274.627Z" fill="#00160A"/>
<path fill-rule="evenodd" clip-rule="evenodd" d="M261.719 303.571C263.634 303.873 265.104 305.228 266.436 306.513C266.972 307.031 267.515 307.557 267.884 308.184C268.756 309.666 268.518 311.523 267.719 313.038C266.919 314.554 265.625 315.799 264.351 317.018C263.596 317.74 262.669 318.523 261.58 318.405C261.176 318.361 260.802 318.192 260.445 318.014C257.259 316.423 254.704 313.814 253.336 310.755C253.157 310.353 252.994 309.923 253.063 309.493C253.13 309.072 253.41 308.708 253.682 308.361C254.667 307.108 255.669 305.837 256.998 304.881C258.326 303.924 260.049 303.307 261.719 303.571M255.371 308.905C254.865 309.372 254.272 309.872 254.247 310.526C254.236 310.822 254.348 311.109 254.476 311.382C255.67 313.915 258.309 315.596 260.822 317.141C260.986 317.241 261.16 317.346 261.358 317.357C261.577 317.37 261.781 317.266 261.965 317.158C262.875 316.623 263.623 315.894 264.36 315.172C264.729 314.811 265.116 314.418 265.195 313.931C265.274 313.444 264.878 312.866 264.338 312.91C263.205 313.002 262.111 312.474 261.255 311.794C259.748 310.6 258.757 308.881 258.535 307.076C258.459 306.454 258.441 305.76 257.958 305.312C257.369 306.65 256.484 307.879 255.371 308.905ZM261.22 305.069C260.743 305.036 260.229 305.105 259.867 305.388C259.034 306.04 259.486 307.279 260.094 308.11C261.018 309.372 262.172 310.494 263.497 311.416C263.999 311.765 264.542 312.092 265.16 312.213C265.777 312.333 266.488 312.208 266.898 311.771C267.31 311.332 267.332 310.677 267.125 310.132C266.918 309.587 266.517 309.123 266.137 308.662C264.835 307.08 263.389 305.221 261.22 305.069V305.069Z" fill="#00160A"/>
<path fill-rule="evenodd" clip-rule="evenodd" d="M243.151 301.512C242.441 302.005 241.448 302.065 240.591 301.831C239.734 301.598 238.992 301.108 238.314 300.578C236.665 299.286 235.294 297.701 234.303 295.94C233.775 295.002 233.347 293.972 233.431 292.921C233.558 291.348 234.788 290.047 236.031 288.946C236.614 288.429 237.254 287.907 238.05 287.744C238.826 287.585 239.635 287.793 240.374 288.061C244.12 289.418 247.071 292.457 248.085 296C247.532 298.368 245.269 300.04 243.151 301.512ZM240.276 300.005C241.082 300.438 242.046 300.808 242.934 300.536C243.814 300.268 244.337 299.455 244.668 298.669C243.649 297.586 242.12 297.021 240.936 296.087C238.834 294.426 238.046 291.815 237.363 289.363C236.205 290.235 235.28 291.361 234.691 292.618C234.522 292.979 234.377 293.366 234.423 293.757C234.457 294.037 234.586 294.3 234.723 294.553C235.941 296.807 237.896 298.726 240.276 300.005ZM238.307 290.323C238.262 290.707 238.471 291.075 238.685 291.409C239.985 293.437 241.72 295.234 243.765 296.669C244.389 297.107 245.247 297.523 245.919 297.147C246.319 296.924 246.503 296.477 246.543 296.052C246.649 294.907 245.92 293.848 245.175 292.92C244.064 291.537 242.774 290.174 241.029 289.528C240.515 289.337 239.948 289.214 239.407 289.322C238.866 289.431 238.366 289.822 238.307 290.323V290.323Z" fill="#00160A"/>
<path fill-rule="evenodd" clip-rule="evenodd" d="M202.519 40.4088C201.746 41.3329 201.106 42.9035 202.247 43.4272C203.141 43.8379 204.109 43.0409 204.728 42.3253C207.155 39.5184 209.582 36.7114 212.009 33.9045C212.601 34.8621 211.923 36.0342 211.262 36.9536C209.427 39.5049 207.485 42.149 204.577 43.6699C209.586 45.907 214.364 48.5719 218.826 51.618C220.736 50.9609 222.321 49.5659 223.105 47.854C222.562 48.3241 221.676 47.9705 221.046 47.5995C217.081 45.2623 213.199 42.8093 209.407 40.2457C209.674 39.5918 210.757 39.8752 211.391 40.2688C214.905 42.4498 218.418 44.6308 221.932 46.8118C222.791 47.3448 223.853 46.4816 224.453 45.7103C225.77 44.0177 227.087 42.3251 228.404 40.6325C228.887 40.0106 229.416 39.3563 230.198 39.0805C231.532 38.6096 232.966 39.4118 234.124 40.1755C234.464 40.3995 234.821 40.643 234.972 40.9984C235.234 41.6133 234.789 42.2737 234.365 42.8089C230.239 48.0161 226.113 53.2232 221.987 58.4304C221.8 58.667 221.604 58.9107 221.325 59.0553C220.612 59.4247 219.714 59.0004 219.121 58.4861C218.282 57.7592 217.014 56.5467 217.753 55.3276C218.492 54.1085 218.522 54.0537 219.144 53.1237C213.908 49.5139 208.451 45.809 202.032 44.52C200.938 44.3003 200.343 43.1349 200.473 42.1248C200.603 41.1147 201.26 40.2338 201.899 39.3979C203.414 37.4128 204.93 35.4276 206.446 33.4425C206.836 32.9319 207.234 32.4128 207.776 32.0336C208.762 31.3436 210.19 31.2187 211.303 31.725C212.416 32.2313 213.16 33.3438 213.142 34.474C212.47 33.8775 211.77 33.2644 210.887 32.9716C210.005 32.6788 208.883 32.797 208.315 33.4766C206.383 35.7873 204.451 38.0981 202.519 40.4088ZM218.318 55.7376C218.318 56.7826 219.211 57.3519 219.889 57.5897C220.568 57.8275 221.446 57.7329 221.868 57.195C225.589 52.4493 229.31 47.7037 233.03 42.958C233.193 42.751 233.358 42.538 233.43 42.2922C233.583 41.7665 233.259 41.203 232.79 40.8645C232.321 40.526 231.731 40.3651 231.156 40.2115C230.897 40.1423 230.611 40.0744 230.366 40.1769C230.2 40.2461 230.083 40.3822 229.972 40.5136C226.86 44.2022 223.892 47.9909 221.075 51.8702C220.964 51.6743 219.077 54.1524 218.318 55.7376Z" fill="#00160A"/>
<path fill-rule="evenodd" clip-rule="evenodd" d="M162.909 111.832C162.786 112.557 162.127 113.089 161.604 113.647C160.459 114.871 159.859 116.428 159.283 117.946C158.606 117.276 158.497 116.255 158.755 115.376C159.013 114.497 159.584 113.725 160.145 112.972C160.468 112.539 160.805 112.093 161.295 111.818C161.786 111.544 162.474 111.489 162.909 111.832V111.832Z" fill="#00160A"/>
<path fill-rule="evenodd" clip-rule="evenodd" d="M287.637 81.8123C286.431 83.2374 285.226 84.6625 284.02 86.0876C283.369 86.857 282.095 87.6652 281.402 86.9267C280.189 85.6337 277.947 85.998 276.115 85.654C274.928 85.4312 273.855 84.8759 272.804 84.3286C257.609 76.4163 242.415 68.504 227.22 60.5917C226.019 59.9665 224.719 59.2314 224.321 58.028C240.575 65.9438 256.556 74.3202 272.234 83.141C274.157 84.2229 276.809 85.27 278.472 83.8778C278.95 83.4781 279.244 82.9343 279.528 82.4037C280.989 79.6686 282.451 76.9334 283.913 74.1983C267.499 64.6163 249.584 57.1456 233.996 46.4873C233.683 46.2738 233.349 46.0248 233.286 45.6746C233.223 45.3244 233.646 44.924 233.981 45.1075C237.625 47.4914 241.335 49.7924 245.107 52.0076C257.071 59.0351 269.629 65.1866 281.846 71.8476C283.035 72.4957 284.338 73.3001 284.559 74.5428C284.73 75.4997 284.195 76.4312 283.678 77.2792C282.613 79.024 281.549 80.7688 280.485 82.5136C280.11 83.1281 279.722 83.8184 279.904 84.5011C280.189 85.5679 281.775 85.9552 282.884 85.5182C283.993 85.0812 284.717 84.1153 285.381 83.1974C285.987 82.3581 286.594 81.5188 287.2 80.6795C287.687 80.0056 286.58 79.3412 285.736 79.0917C284.891 78.8422 283.956 77.8694 284.686 77.4106C285.079 77.1636 285.611 77.3856 286.021 77.6082C287.262 78.2813 288.685 79.306 288.384 80.5892C288.277 81.0493 287.952 81.4392 287.637 81.8123Z" fill="#00160A"/>
<path fill-rule="evenodd" clip-rule="evenodd" d="M155.664 98.4809C155.917 98.6126 156.188 98.7632 156.291 99.0112C156.393 99.2592 156.197 99.6097 155.909 99.5714C153.233 98.1746 150.558 96.7778 147.882 95.381C147.93 95.1046 148.27 94.9346 148.578 94.945C148.886 94.9555 149.167 95.0984 149.434 95.2376C151.511 96.3187 153.587 97.3998 155.664 98.4809Z" fill="#00160A"/>
<path fill-rule="evenodd" clip-rule="evenodd" d="M117.453 84.9072C116.89 83.5931 117.71 82.1403 118.627 81.0024C120.025 79.2676 121.717 77.728 123.624 76.4543C124.099 76.1372 124.826 75.8569 125.209 76.2639C125.673 76.7569 124.965 77.4308 124.375 77.7961C121.886 79.3381 120.15 81.6698 118.457 83.9334C118.179 84.3048 117.885 84.6891 117.453 84.9072L117.453 84.9072Z" fill="#FFB61D"/>
<path fill-rule="evenodd" clip-rule="evenodd" d="M259.467 283.57C257.638 284.751 255.809 285.932 253.981 287.113C253.317 287.542 252.504 287.992 251.74 287.736C249.009 286.822 247.097 284.55 245.827 282.173C245.33 281.242 244.9 280.178 245.25 279.194C245.426 278.7 245.782 278.279 246.132 277.869C247.214 276.602 248.491 275.231 250.248 275.066C251.027 274.992 251.809 275.174 252.541 275.426C254.853 276.222 256.848 277.753 258.097 279.689C257.612 279.52 257.098 279.419 256.579 279.391C255.303 277.506 252.991 276.232 250.559 276.073C251.212 277.451 252.014 278.771 252.952 280.007C253.802 281.128 254.857 282.237 256.301 282.605C257.397 282.885 258.748 282.769 259.467 283.57ZM250.201 285.309C251.09 285.971 252.233 286.526 253.348 286.274C254.902 285.923 255.709 284.18 257.271 283.859C255.189 283.646 253.355 282.442 252.053 280.951C250.752 279.461 249.908 277.692 249.078 275.946C248.963 277.609 246.595 278.676 246.704 280.339C246.724 280.646 246.832 280.942 246.954 281.228C247.627 282.811 248.757 284.232 250.201 285.309H250.201Z" fill="#00160A"/>
<path fill-rule="evenodd" clip-rule="evenodd" d="M145.564 98.2861C145.978 98.0632 146.502 98.2739 146.922 98.488C148.21 99.1453 149.473 99.8429 150.709 100.579C150.953 100.725 151.23 100.959 151.124 101.206C150.989 101.523 150.468 101.404 150.146 101.232C148.856 100.54 147.565 99.8482 146.275 99.1564C145.909 98.9602 145.49 98.666 145.564 98.2861L145.564 98.2861Z" fill="#00160A"/>
<path fill-rule="evenodd" clip-rule="evenodd" d="M120.367 88.3437C121.124 86.4052 122.299 84.602 123.806 83.0657C124.335 82.5265 124.903 82.0206 125.471 81.5152C126.296 80.7809 127.121 80.0465 127.946 79.3121C128.176 79.1078 128.445 78.8888 128.766 78.9039C129.176 78.9232 129.449 79.3406 129.416 79.7113C129.384 80.082 129.135 80.4048 128.884 80.6986C127.602 82.198 126.036 83.4742 124.648 84.8938C123.261 86.3134 122.025 87.9367 121.605 89.7957C121.493 90.2938 120.587 90.2578 120.306 89.8183C120.024 89.3788 120.179 88.8229 120.367 88.3437Z" fill="#FFB61D"/>
<path fill-rule="evenodd" clip-rule="evenodd" d="M273.932 322.684C274.359 321.004 275.255 319.424 276.512 318.132C277.063 318.779 276.43 319.67 275.959 320.367C275.578 320.931 275.299 321.55 275.136 322.194C275.088 322.384 275.05 322.584 275.107 322.772C275.155 322.93 275.265 323.065 275.373 323.196C277.232 325.451 279.365 327.868 282.407 328.419C283.005 328.528 283.623 328.24 284.026 327.825C284.43 327.411 284.662 326.884 284.885 326.369C281.181 325.033 278.325 321.914 277.555 318.363C277.524 318.22 277.496 318.068 277.554 317.932C277.634 317.743 277.852 317.637 278.058 317.56C279.528 317.009 281.271 317.098 282.663 317.796C283.202 318.067 283.685 318.42 284.165 318.771C284.909 319.316 285.652 319.86 286.396 320.404C287.619 321.3 288.966 322.45 288.797 323.868C288.705 324.648 288.157 325.312 287.629 325.933C286.477 327.288 285.326 328.643 284.174 329.997C280.144 329.522 276.396 327.347 274.229 324.226C274.065 323.989 273.907 323.741 273.858 323.465C273.812 323.205 273.867 322.94 273.932 322.684ZM282.572 319.154C281.305 318.489 279.801 318.204 278.347 318.352C279.44 321.039 281.586 323.363 284.31 324.809C284.977 325.163 285.791 325.471 286.5 325.191C287.412 324.831 287.622 323.727 288.36 323.122C286.937 322.122 285.513 321.123 284.09 320.124C283.6 319.78 283.108 319.435 282.572 319.154Z" fill="#00160A"/>
<path fill-rule="evenodd" clip-rule="evenodd" d="M234.742 260.271C236.68 259.227 239.275 260.132 240.805 261.635C242.334 263.138 243.144 265.112 244.276 266.881C244.061 266.961 243.846 267.04 243.631 267.12C242.548 264.495 240.663 262.147 238.241 260.408C237.845 260.124 237.102 259.945 236.972 260.388C236.935 260.515 236.977 260.648 237.019 260.774C237.262 261.507 237.506 262.239 237.75 262.972C237.9 263.422 238.05 263.874 238.275 264.297C239.096 265.839 240.786 266.816 242.393 267.713C242.764 267.919 242.53 268.46 242.179 268.694C241.828 268.927 241.358 269.103 241.252 269.486C241.11 267.92 239.207 267.071 238.176 265.808C237.801 265.348 237.539 264.823 237.279 264.301C236.73 263.198 236.18 262.095 235.631 260.992C234.952 261.585 234.274 262.178 233.595 262.77C233.28 263.045 232.955 263.334 232.805 263.706C232.593 264.234 232.773 264.823 233.009 265.342C233.448 266.311 234.083 267.206 234.873 267.97C235.355 268.437 235.899 268.862 236.27 269.406C236.64 269.95 236.81 270.664 236.48 271.229C234.676 269.872 233.154 268.207 232.018 266.347C231.575 265.62 231.18 264.825 231.224 263.996C231.312 262.289 233.123 261.143 234.742 260.271V260.271Z" fill="#00160A"/>
<path fill-rule="evenodd" clip-rule="evenodd" d="M90.6179 310.236C88.315 313.252 85.6395 316.314 81.839 317.562C78.0385 318.81 72.9131 317.376 71.8832 313.828C70.1613 307.896 79.6518 304.864 83.1972 299.642C87.4053 293.444 82.3611 285.615 77.4045 279.891C73.8873 282.559 68.7645 285.303 65.1421 282.752C60.7557 279.664 64.4468 273.208 68.92 270.225C76.9429 264.873 87.2029 262.36 97.1025 263.321C99.6226 246.281 109.265 230.19 123.654 219.011C138.043 207.833 157.047 201.67 175.981 202.041C173.865 168.715 195.15 135.105 227.941 119.995C231.501 118.355 235.312 116.891 239.304 116.913C243.296 116.935 247.511 118.779 249.025 122.132C250.54 125.485 248.191 130.086 244.214 130.392C228.897 131.571 214.351 139.317 205.743 150.878C226.115 149.454 245.391 158.519 263.378 167.32C270.707 170.906 278.037 174.493 285.366 178.079C292.482 181.561 300.377 185.157 308.286 183.637C322.913 180.827 327.368 163.432 339.611 155.644C341.187 154.641 343.064 153.775 344.96 154.071C349.904 154.843 349.557 161.47 347.43 165.594C334.747 190.194 306.33 205.674 277.118 211.554C247.907 217.433 217.544 215.109 187.736 212.756C185.673 232.108 182.76 253.154 167.507 266.803C153.006 279.78 130.07 282.634 110.438 277.724C120.882 278.422 131.459 278.96 141.76 277.254C152.062 275.548 162.2 271.373 168.894 264.063C172.901 259.688 175.505 254.403 177.693 249.071C182.422 237.544 185.431 225.436 186.613 213.182C182.965 213.407 179.317 213.631 175.669 213.856C176.593 230.174 172.117 247.427 159.748 259.298C147.379 271.169 126.119 276.013 110.606 267.725C107.201 282.928 100.355 297.488 90.6179 310.236ZM130.323 270.434C136.354 269.579 142.25 267.945 147.778 265.596C144.353 263.115 141.046 260.444 138.438 257.248C132.883 250.442 130.779 241.62 124.729 235.171C117.464 244.317 112.702 255.088 110.986 266.256C110.948 266.507 110.916 266.783 111.066 266.998C111.222 267.22 111.525 267.309 111.805 267.381C116.428 268.572 121.127 269.519 125.87 270.217C123.239 267.619 120.589 264.998 118.587 261.973C116.586 258.947 115.255 255.45 115.515 251.929C117.981 257.79 121.506 263.281 125.908 268.117C127.043 269.364 128.562 270.683 130.323 270.434ZM348.556 160.544C349.921 157.484 345.266 154.562 341.791 155.536C338.316 156.51 336.162 159.56 334.137 162.302C322.776 177.681 306.221 189.85 287.287 196.739C258.124 207.349 225.536 205.235 194.144 204.073C179.384 203.526 164.321 203.26 150.166 207.095C129.556 212.679 112.147 227.251 104.347 245.446C99.8438 255.951 98.4582 267.312 95.3776 278.233C92.297 289.153 87.0369 300.22 77.01 306.871C75.1911 308.077 73.0825 309.317 72.5767 311.31C71.8248 314.272 75.4559 316.962 78.7979 316.767C82.1399 316.572 84.9448 314.456 87.2383 312.241C110.553 289.722 105.203 250.779 129.271 228.924C140.62 218.618 156.915 213.926 172.904 212.639C188.894 211.353 204.961 213.107 220.993 213.838C245.968 214.978 271.54 213.536 294.869 205.362C318.197 197.188 339.169 181.584 348.556 160.544ZM197.669 166.769C197.154 167.054 196.846 167.559 196.567 168.044C190.678 178.299 187.766 189.947 188.203 201.504C187.571 201.477 187.324 200.756 187.258 200.185C185.703 186.725 191.866 173.628 197.896 161.25C199.722 157.501 201.562 153.729 204.082 150.327C208.778 143.988 215.608 139.226 222.566 134.929C224.881 133.498 227.259 132.091 229.912 131.276C231.677 130.734 233.528 130.465 235.368 130.199C237.659 129.868 239.951 129.537 242.242 129.205C244.622 128.861 247.347 128.299 248.432 126.346C249.955 123.603 246.887 120.408 243.628 119.58C239.517 118.536 235.138 119.605 231.117 120.905C224.955 122.897 218.975 125.462 213.701 128.974C209.491 131.775 205.775 135.149 202.366 138.737C186.281 155.66 176.929 177.746 176.387 200.092C176.374 200.601 176.372 201.135 176.629 201.588C177.244 202.673 178.899 202.729 180.242 202.653C189.823 202.107 199.465 202.441 208.972 203.65C204.33 199.674 199.61 195.647 193.958 192.956C192.168 192.105 190.177 191.295 189.192 189.694C193.078 190.263 196.791 191.78 199.837 194.044C202.29 195.868 204.293 198.143 206.68 200.038C209.067 201.933 212.031 203.485 215.201 203.394C224.088 203.141 232.99 203.286 241.861 203.829C234.783 199.554 228.948 193.823 222.547 188.744C216.146 183.664 208.807 179.086 200.409 177.884C198.065 177.548 195.116 177.079 194.529 174.991C203.396 175.42 211.708 179.177 218.874 183.938C226.039 188.698 232.291 194.484 239.038 199.724C241.448 201.595 244.306 203.506 247.454 203.163C257.317 202.087 267.256 200.997 276.694 198.186C253.732 190.777 235.598 173.034 211.817 168.206C207.883 167.407 203.87 166.983 199.866 166.561C199.121 166.482 198.311 166.415 197.669 166.769ZM288.123 180.926C285.507 179.774 282.891 178.623 280.274 177.472C276.538 175.828 272.801 174.183 269.118 172.441C260.543 168.384 252.27 163.8 243.541 160.024C234.812 156.247 225.512 153.267 215.864 152.68C213.41 152.531 210.916 152.533 208.546 151.936C207.063 151.563 205.45 152.19 204.356 153.173C203.263 154.156 202.586 155.448 201.931 156.713C200.47 159.53 199.009 162.348 197.548 165.166C208.806 164.212 219.879 168.039 229.997 172.62C239.582 176.959 248.746 182.032 257.661 187.421C261.707 189.867 265.733 192.394 270.183 194.169C274.633 195.944 279.6 196.939 284.384 196.154C292.581 194.809 298.765 188.626 306.558 185.955C300.078 186.119 293.956 183.493 288.123 180.926ZM140.205 223.456C142.657 228.957 146.132 234.131 150.779 238.304C155.427 242.478 161.284 245.62 167.679 246.855C169.168 241.909 170.593 236.948 171.953 231.972C172.082 231.5 172.139 230.874 171.662 230.654C164.829 227.5 158.68 223.131 153.666 217.868C153.709 217.321 154.432 216.995 155.025 217.097C155.618 217.199 156.093 217.589 156.532 217.965C161.421 222.153 166.231 226.716 172.472 228.986C173.889 224.759 174.853 220.408 175.348 216.013C175.438 215.204 175.219 214.076 174.324 214.073C156.662 214.013 139.089 220.689 126.738 232.15C125.882 232.945 125.831 234.237 126.263 235.278C126.694 236.318 127.519 237.176 128.281 238.046C131.997 242.288 134.515 247.267 137.45 251.986C140.386 256.704 143.914 261.33 148.977 264.202C149.498 264.498 150.077 264.783 150.69 264.741C151.195 264.706 151.646 264.453 152.069 264.201C158.106 260.608 163.15 255.652 166.62 249.905C166.996 249.282 167.168 248.244 166.404 248.093C161.761 247.178 157.354 245.297 153.617 242.635C150.731 240.578 148.265 238.085 145.816 235.605C144.318 234.088 142.81 232.559 141.653 230.813C140.262 228.713 139.407 226.322 139.176 223.881C139.519 223.739 139.862 223.598 140.205 223.456ZM67.6432 282.494C70.1502 282.968 72.5318 281.423 74.4839 279.919C76.748 278.174 78.9662 276.346 81.5394 275C84.1126 273.654 87.1236 272.81 90.0573 273.23C91.0531 273.372 92.0409 273.658 93.0462 273.59C94.0516 273.522 95.1197 272.966 95.2937 272.065C95.7066 269.924 96.0321 267.77 96.2691 265.607C96.3029 265.298 96.3224 264.951 96.099 264.717C95.8829 264.49 95.5174 264.451 95.1876 264.431C84.7147 263.818 74.0269 267.531 66.6803 274.334C65.5665 275.366 64.4838 276.543 64.2245 277.968C63.8618 279.961 65.4639 282.083 67.6432 282.494ZM88.7739 276.204C90.1812 277.677 91.5884 279.15 92.9956 280.622C93.3657 278.815 93.9513 277.044 94.739 275.35C90.5396 273.747 85.4511 274.24 81.7186 276.611C80.9064 277.127 80.1595 277.721 79.4144 278.315C79.1187 278.551 78.8108 278.802 78.6851 279.141C78.5594 279.479 78.6966 279.926 79.07 280.038C80.4586 280.456 81.4436 281.566 82.2378 282.681C84.8443 286.341 86.2741 290.683 86.3083 295.042C88.306 291.227 90.3036 287.412 92.3013 283.596C91.5082 283.395 91.3042 282.49 91.1056 281.764C90.4006 279.189 88.1251 277.251 85.9564 275.471C86.2949 275.061 86.9817 275.009 87.4991 275.214C88.0166 275.418 88.4042 275.817 88.7739 276.204Z" fill="#00160A"/>
</svg>
